# xmcd
#
# Track frame offsets:
#   150
#   13607
#   29617
#   43357
#   59757
#   73700
#   87572
#   103407
#   116965
#   133380
#   145570
#   161647
#   177892
#   190590
#
# Disc length: 2712 seconds
#
# Revision: 0
# Processed by: cddbd v1.5.2PL0 Copyright (c) Steve Scherf et al.
# Submitted via: uFREEDB ActiveX Control 1.5
#
DISCID=da0a960e
DTITLE=ALAM and ALADIM - BIS SERTANEJO
DYEAR=2007
DGENRE=Country
TTITLE0=MEU COMPANHEIRO 
TTITLE1=PAIXÃO
TTITLE2=LIGUEI PRA DIZER QU ETE  AMO
TTITLE3=DONA
TTITLE4=VOCÊ AINDA VIVE EM  MIM
TTITLE5=EU NÃO SEI NEM VIVER
TTITLE6=INIMIGO DO PEITO
TTITLE7=QUEM AMA PERDOA
TTITLE8=A DOIS GRAUS
TTITLE9=CHAMA DO PRAZER
TTITLE10=DOIS PASSARINHOS
TTITLE11=A DISTÂNCIA
TTITLE12=CASTELO DE ALGODÃO
TTITLE13=CANÇÃO DA ESPERANÇA
EXTD=
EXTT0=
EXTT1=
EXTT2=
EXTT3=
EXTT4=
EXTT5=
EXTT6=
EXTT7=
EXTT8=
EXTT9=
EXTT10=
EXTT11=
EXTT12=
EXTT13=
PLAYORDER=
